<mxfile host="app.diagrams.net" modified="2022-02-23T12:38:55.532Z" agent="5.0 (Macintosh; Intel Mac OS X 10_15_7) AppleWebKit/537.36 (KHTML, like Gecko) Chrome/98.0.4758.102 Safari/537.36" etag="3vsSF2HaatrESAHtfUT-" version="16.6.2" type="github">
  <diagram id="CSf084mDuzh62kla3Nzj" name="Page-1">
    <mxGraphModel dx="1878" dy="794" grid="1" gridSize="10" guides="1" tooltips="1" connect="1" arrows="1" fold="1" page="1" pageScale="1" pageWidth="3300" pageHeight="4681" math="0" shadow="0">
      <root>
        <mxCell id="0" />
        <mxCell id="1" parent="0" />
        <mxCell id="-S27YSz-7loeSFltslUp-18" value="demoji.replace&lt;br&gt;replace(&#39;\n&#39;, &#39;&#39;)&lt;br&gt;zen2han&lt;br&gt;kan2zen&lt;br&gt;removeBotTweet" style="edgeStyle=orthogonalEdgeStyle;shape=flexArrow;curved=0;rounded=1;sketch=0;orthogonalLoop=1;jettySize=auto;html=1;fontColor=#095C86;strokeColor=#60E696;fillColor=#F694C1;entryX=0.461;entryY=0.008;entryDx=0;entryDy=0;entryPerimeter=0;" edge="1" parent="1" source="SWuRiRT_l_LITAm-boq1-7" target="SWuRiRT_l_LITAm-boq1-7">
          <mxGeometry x="0.3075" relative="1" as="geometry">
            <mxPoint x="650" y="530" as="targetPoint" />
            <Array as="points">
              <mxPoint x="200" y="285" />
              <mxPoint x="200" y="130" />
              <mxPoint x="413" y="130" />
            </Array>
            <mxPoint as="offset" />
          </mxGeometry>
        </mxCell>
        <mxCell id="Eg6wl4dy39NXFwd9Kh9v-11" value="" style="edgeStyle=orthogonalEdgeStyle;curved=0;rounded=1;sketch=0;orthogonalLoop=1;jettySize=auto;html=1;fontColor=#095C86;strokeColor=#60E696;fillColor=#F694C1;" edge="1" parent="1" source="SWuRiRT_l_LITAm-boq1-7" target="Eg6wl4dy39NXFwd9Kh9v-1">
          <mxGeometry relative="1" as="geometry" />
        </mxCell>
        <mxCell id="Eg6wl4dy39NXFwd9Kh9v-12" value="separateWords" style="edgeLabel;html=1;align=center;verticalAlign=middle;resizable=0;points=[];fontColor=#095C86;" vertex="1" connectable="0" parent="Eg6wl4dy39NXFwd9Kh9v-11">
          <mxGeometry x="-0.025" relative="1" as="geometry">
            <mxPoint as="offset" />
          </mxGeometry>
        </mxCell>
        <mxCell id="SWuRiRT_l_LITAm-boq1-7" value="text" style="shape=table;startSize=30;container=1;collapsible=1;childLayout=tableLayout;fixedRows=1;rowLines=0;fontStyle=1;align=center;resizeLast=1;fillColor=#F694C1;strokeColor=#AF45ED;fontColor=#095C86;" parent="1" vertex="1">
          <mxGeometry x="330" y="220" width="180" height="130" as="geometry" />
        </mxCell>
        <mxCell id="SWuRiRT_l_LITAm-boq1-8" value="" style="shape=tableRow;horizontal=0;startSize=0;swimlaneHead=0;swimlaneBody=0;fillColor=none;collapsible=0;dropTarget=0;points=[[0,0.5],[1,0.5]];portConstraint=eastwest;top=0;left=0;right=0;bottom=1;strokeColor=#AF45ED;fontColor=#095C86;" parent="SWuRiRT_l_LITAm-boq1-7" vertex="1">
          <mxGeometry y="30" width="180" height="30" as="geometry" />
        </mxCell>
        <mxCell id="SWuRiRT_l_LITAm-boq1-9" value="PK" style="shape=partialRectangle;connectable=0;fillColor=none;top=0;left=0;bottom=0;right=0;fontStyle=1;overflow=hidden;strokeColor=#AF45ED;fontColor=#095C86;" parent="SWuRiRT_l_LITAm-boq1-8" vertex="1">
          <mxGeometry width="30" height="30" as="geometry">
            <mxRectangle width="30" height="30" as="alternateBounds" />
          </mxGeometry>
        </mxCell>
        <mxCell id="SWuRiRT_l_LITAm-boq1-10" value="tweetID" style="shape=partialRectangle;connectable=0;fillColor=none;top=0;left=0;bottom=0;right=0;align=left;spacingLeft=6;fontStyle=5;overflow=hidden;strokeColor=#AF45ED;fontColor=#095C86;" parent="SWuRiRT_l_LITAm-boq1-8" vertex="1">
          <mxGeometry x="30" width="150" height="30" as="geometry">
            <mxRectangle width="150" height="30" as="alternateBounds" />
          </mxGeometry>
        </mxCell>
        <mxCell id="SWuRiRT_l_LITAm-boq1-11" value="" style="shape=tableRow;horizontal=0;startSize=0;swimlaneHead=0;swimlaneBody=0;fillColor=none;collapsible=0;dropTarget=0;points=[[0,0.5],[1,0.5]];portConstraint=eastwest;top=0;left=0;right=0;bottom=0;strokeColor=#AF45ED;fontColor=#095C86;" parent="SWuRiRT_l_LITAm-boq1-7" vertex="1">
          <mxGeometry y="60" width="180" height="30" as="geometry" />
        </mxCell>
        <mxCell id="SWuRiRT_l_LITAm-boq1-12" value="" style="shape=partialRectangle;connectable=0;fillColor=none;top=0;left=0;bottom=0;right=0;editable=1;overflow=hidden;strokeColor=#AF45ED;fontColor=#095C86;" parent="SWuRiRT_l_LITAm-boq1-11" vertex="1">
          <mxGeometry width="30" height="30" as="geometry">
            <mxRectangle width="30" height="30" as="alternateBounds" />
          </mxGeometry>
        </mxCell>
        <mxCell id="SWuRiRT_l_LITAm-boq1-13" value="date-time" style="shape=partialRectangle;connectable=0;fillColor=none;top=0;left=0;bottom=0;right=0;align=left;spacingLeft=6;overflow=hidden;strokeColor=#AF45ED;fontColor=#095C86;" parent="SWuRiRT_l_LITAm-boq1-11" vertex="1">
          <mxGeometry x="30" width="150" height="30" as="geometry">
            <mxRectangle width="150" height="30" as="alternateBounds" />
          </mxGeometry>
        </mxCell>
        <mxCell id="SWuRiRT_l_LITAm-boq1-14" value="" style="shape=tableRow;horizontal=0;startSize=0;swimlaneHead=0;swimlaneBody=0;fillColor=none;collapsible=0;dropTarget=0;points=[[0,0.5],[1,0.5]];portConstraint=eastwest;top=0;left=0;right=0;bottom=0;strokeColor=#AF45ED;fontColor=#095C86;" parent="SWuRiRT_l_LITAm-boq1-7" vertex="1">
          <mxGeometry y="90" width="180" height="30" as="geometry" />
        </mxCell>
        <mxCell id="SWuRiRT_l_LITAm-boq1-15" value="" style="shape=partialRectangle;connectable=0;fillColor=none;top=0;left=0;bottom=0;right=0;editable=1;overflow=hidden;strokeColor=#AF45ED;fontColor=#095C86;" parent="SWuRiRT_l_LITAm-boq1-14" vertex="1">
          <mxGeometry width="30" height="30" as="geometry">
            <mxRectangle width="30" height="30" as="alternateBounds" />
          </mxGeometry>
        </mxCell>
        <mxCell id="SWuRiRT_l_LITAm-boq1-16" value="text" style="shape=partialRectangle;connectable=0;fillColor=none;top=0;left=0;bottom=0;right=0;align=left;spacingLeft=6;overflow=hidden;strokeColor=#AF45ED;fontColor=#095C86;" parent="SWuRiRT_l_LITAm-boq1-14" vertex="1">
          <mxGeometry x="30" width="150" height="30" as="geometry">
            <mxRectangle width="150" height="30" as="alternateBounds" />
          </mxGeometry>
        </mxCell>
        <mxCell id="Eg6wl4dy39NXFwd9Kh9v-92" value="" style="edgeStyle=orthogonalEdgeStyle;curved=0;rounded=1;sketch=0;orthogonalLoop=1;jettySize=auto;html=1;fontColor=#095C86;strokeColor=#60E696;fillColor=#F694C1;" edge="1" parent="1" source="Eg6wl4dy39NXFwd9Kh9v-1" target="Eg6wl4dy39NXFwd9Kh9v-67">
          <mxGeometry relative="1" as="geometry" />
        </mxCell>
        <mxCell id="Eg6wl4dy39NXFwd9Kh9v-93" value="concatWord" style="edgeLabel;html=1;align=center;verticalAlign=middle;resizable=0;points=[];fontColor=#095C86;" vertex="1" connectable="0" parent="Eg6wl4dy39NXFwd9Kh9v-92">
          <mxGeometry x="0.0154" y="-1" relative="1" as="geometry">
            <mxPoint as="offset" />
          </mxGeometry>
        </mxCell>
        <mxCell id="Eg6wl4dy39NXFwd9Kh9v-1" value="words" style="shape=table;startSize=30;container=1;collapsible=1;childLayout=tableLayout;fixedRows=1;rowLines=0;fontStyle=1;align=center;resizeLast=1;fillColor=#F694C1;strokeColor=#AF45ED;fontColor=#095C86;" vertex="1" parent="1">
          <mxGeometry x="330" y="430" width="180" height="280" as="geometry" />
        </mxCell>
        <mxCell id="Eg6wl4dy39NXFwd9Kh9v-2" value="" style="shape=tableRow;horizontal=0;startSize=0;swimlaneHead=0;swimlaneBody=0;fillColor=none;collapsible=0;dropTarget=0;points=[[0,0.5],[1,0.5]];portConstraint=eastwest;top=0;left=0;right=0;bottom=1;strokeColor=#AF45ED;fontColor=#095C86;" vertex="1" parent="Eg6wl4dy39NXFwd9Kh9v-1">
          <mxGeometry y="30" width="180" height="30" as="geometry" />
        </mxCell>
        <mxCell id="Eg6wl4dy39NXFwd9Kh9v-3" value="PK" style="shape=partialRectangle;connectable=0;fillColor=none;top=0;left=0;bottom=0;right=0;fontStyle=1;overflow=hidden;strokeColor=#AF45ED;fontColor=#095C86;" vertex="1" parent="Eg6wl4dy39NXFwd9Kh9v-2">
          <mxGeometry width="30" height="30" as="geometry">
            <mxRectangle width="30" height="30" as="alternateBounds" />
          </mxGeometry>
        </mxCell>
        <mxCell id="Eg6wl4dy39NXFwd9Kh9v-4" value="tweetID" style="shape=partialRectangle;connectable=0;fillColor=none;top=0;left=0;bottom=0;right=0;align=left;spacingLeft=6;fontStyle=5;overflow=hidden;strokeColor=#AF45ED;fontColor=#095C86;" vertex="1" parent="Eg6wl4dy39NXFwd9Kh9v-2">
          <mxGeometry x="30" width="150" height="30" as="geometry">
            <mxRectangle width="150" height="30" as="alternateBounds" />
          </mxGeometry>
        </mxCell>
        <mxCell id="Eg6wl4dy39NXFwd9Kh9v-61" style="shape=tableRow;horizontal=0;startSize=0;swimlaneHead=0;swimlaneBody=0;fillColor=none;collapsible=0;dropTarget=0;points=[[0,0.5],[1,0.5]];portConstraint=eastwest;top=0;left=0;right=0;bottom=1;strokeColor=#AF45ED;fontColor=#095C86;" vertex="1" parent="Eg6wl4dy39NXFwd9Kh9v-1">
          <mxGeometry y="60" width="180" height="30" as="geometry" />
        </mxCell>
        <mxCell id="Eg6wl4dy39NXFwd9Kh9v-62" value="PK" style="shape=partialRectangle;connectable=0;fillColor=none;top=0;left=0;bottom=0;right=0;fontStyle=1;overflow=hidden;strokeColor=#AF45ED;fontColor=#095C86;" vertex="1" parent="Eg6wl4dy39NXFwd9Kh9v-61">
          <mxGeometry width="30" height="30" as="geometry">
            <mxRectangle width="30" height="30" as="alternateBounds" />
          </mxGeometry>
        </mxCell>
        <mxCell id="Eg6wl4dy39NXFwd9Kh9v-63" value="wordNum" style="shape=partialRectangle;connectable=0;fillColor=none;top=0;left=0;bottom=0;right=0;align=left;spacingLeft=6;fontStyle=5;overflow=hidden;strokeColor=#AF45ED;fontColor=#095C86;" vertex="1" parent="Eg6wl4dy39NXFwd9Kh9v-61">
          <mxGeometry x="30" width="150" height="30" as="geometry">
            <mxRectangle width="150" height="30" as="alternateBounds" />
          </mxGeometry>
        </mxCell>
        <mxCell id="Eg6wl4dy39NXFwd9Kh9v-13" style="shape=tableRow;horizontal=0;startSize=0;swimlaneHead=0;swimlaneBody=0;fillColor=none;collapsible=0;dropTarget=0;points=[[0,0.5],[1,0.5]];portConstraint=eastwest;top=0;left=0;right=0;bottom=0;strokeColor=#AF45ED;fontColor=#095C86;" vertex="1" parent="Eg6wl4dy39NXFwd9Kh9v-1">
          <mxGeometry y="90" width="180" height="30" as="geometry" />
        </mxCell>
        <mxCell id="Eg6wl4dy39NXFwd9Kh9v-14" style="shape=partialRectangle;connectable=0;fillColor=none;top=0;left=0;bottom=0;right=0;editable=1;overflow=hidden;strokeColor=#AF45ED;fontColor=#095C86;" vertex="1" parent="Eg6wl4dy39NXFwd9Kh9v-13">
          <mxGeometry width="30" height="30" as="geometry">
            <mxRectangle width="30" height="30" as="alternateBounds" />
          </mxGeometry>
        </mxCell>
        <mxCell id="Eg6wl4dy39NXFwd9Kh9v-15" value="word" style="shape=partialRectangle;connectable=0;fillColor=none;top=0;left=0;bottom=0;right=0;align=left;spacingLeft=6;overflow=hidden;strokeColor=#AF45ED;fontColor=#095C86;" vertex="1" parent="Eg6wl4dy39NXFwd9Kh9v-13">
          <mxGeometry x="30" width="150" height="30" as="geometry">
            <mxRectangle width="150" height="30" as="alternateBounds" />
          </mxGeometry>
        </mxCell>
        <mxCell id="Eg6wl4dy39NXFwd9Kh9v-19" style="shape=tableRow;horizontal=0;startSize=0;swimlaneHead=0;swimlaneBody=0;fillColor=none;collapsible=0;dropTarget=0;points=[[0,0.5],[1,0.5]];portConstraint=eastwest;top=0;left=0;right=0;bottom=0;strokeColor=#AF45ED;fontColor=#095C86;" vertex="1" parent="Eg6wl4dy39NXFwd9Kh9v-1">
          <mxGeometry y="120" width="180" height="30" as="geometry" />
        </mxCell>
        <mxCell id="Eg6wl4dy39NXFwd9Kh9v-20" style="shape=partialRectangle;connectable=0;fillColor=none;top=0;left=0;bottom=0;right=0;editable=1;overflow=hidden;strokeColor=#AF45ED;fontColor=#095C86;" vertex="1" parent="Eg6wl4dy39NXFwd9Kh9v-19">
          <mxGeometry width="30" height="30" as="geometry">
            <mxRectangle width="30" height="30" as="alternateBounds" />
          </mxGeometry>
        </mxCell>
        <mxCell id="Eg6wl4dy39NXFwd9Kh9v-21" value="part" style="shape=partialRectangle;connectable=0;fillColor=none;top=0;left=0;bottom=0;right=0;align=left;spacingLeft=6;overflow=hidden;strokeColor=#AF45ED;fontColor=#095C86;" vertex="1" parent="Eg6wl4dy39NXFwd9Kh9v-19">
          <mxGeometry x="30" width="150" height="30" as="geometry">
            <mxRectangle width="150" height="30" as="alternateBounds" />
          </mxGeometry>
        </mxCell>
        <mxCell id="Eg6wl4dy39NXFwd9Kh9v-22" style="shape=tableRow;horizontal=0;startSize=0;swimlaneHead=0;swimlaneBody=0;fillColor=none;collapsible=0;dropTarget=0;points=[[0,0.5],[1,0.5]];portConstraint=eastwest;top=0;left=0;right=0;bottom=0;strokeColor=#AF45ED;fontColor=#095C86;" vertex="1" parent="Eg6wl4dy39NXFwd9Kh9v-1">
          <mxGeometry y="150" width="180" height="30" as="geometry" />
        </mxCell>
        <mxCell id="Eg6wl4dy39NXFwd9Kh9v-23" style="shape=partialRectangle;connectable=0;fillColor=none;top=0;left=0;bottom=0;right=0;editable=1;overflow=hidden;strokeColor=#AF45ED;fontColor=#095C86;" vertex="1" parent="Eg6wl4dy39NXFwd9Kh9v-22">
          <mxGeometry width="30" height="30" as="geometry">
            <mxRectangle width="30" height="30" as="alternateBounds" />
          </mxGeometry>
        </mxCell>
        <mxCell id="Eg6wl4dy39NXFwd9Kh9v-24" value="partSubCategory1" style="shape=partialRectangle;connectable=0;fillColor=none;top=0;left=0;bottom=0;right=0;align=left;spacingLeft=6;overflow=hidden;strokeColor=#AF45ED;fontColor=#095C86;" vertex="1" parent="Eg6wl4dy39NXFwd9Kh9v-22">
          <mxGeometry x="30" width="150" height="30" as="geometry">
            <mxRectangle width="150" height="30" as="alternateBounds" />
          </mxGeometry>
        </mxCell>
        <mxCell id="Eg6wl4dy39NXFwd9Kh9v-52" style="shape=tableRow;horizontal=0;startSize=0;swimlaneHead=0;swimlaneBody=0;fillColor=none;collapsible=0;dropTarget=0;points=[[0,0.5],[1,0.5]];portConstraint=eastwest;top=0;left=0;right=0;bottom=0;strokeColor=#AF45ED;fontColor=#095C86;" vertex="1" parent="Eg6wl4dy39NXFwd9Kh9v-1">
          <mxGeometry y="180" width="180" height="30" as="geometry" />
        </mxCell>
        <mxCell id="Eg6wl4dy39NXFwd9Kh9v-53" style="shape=partialRectangle;connectable=0;fillColor=none;top=0;left=0;bottom=0;right=0;editable=1;overflow=hidden;strokeColor=#AF45ED;fontColor=#095C86;" vertex="1" parent="Eg6wl4dy39NXFwd9Kh9v-52">
          <mxGeometry width="30" height="30" as="geometry">
            <mxRectangle width="30" height="30" as="alternateBounds" />
          </mxGeometry>
        </mxCell>
        <mxCell id="Eg6wl4dy39NXFwd9Kh9v-54" value="partSubCategory2" style="shape=partialRectangle;connectable=0;fillColor=none;top=0;left=0;bottom=0;right=0;align=left;spacingLeft=6;overflow=hidden;strokeColor=#AF45ED;fontColor=#095C86;" vertex="1" parent="Eg6wl4dy39NXFwd9Kh9v-52">
          <mxGeometry x="30" width="150" height="30" as="geometry">
            <mxRectangle width="150" height="30" as="alternateBounds" />
          </mxGeometry>
        </mxCell>
        <mxCell id="Eg6wl4dy39NXFwd9Kh9v-25" style="shape=tableRow;horizontal=0;startSize=0;swimlaneHead=0;swimlaneBody=0;fillColor=none;collapsible=0;dropTarget=0;points=[[0,0.5],[1,0.5]];portConstraint=eastwest;top=0;left=0;right=0;bottom=0;strokeColor=#AF45ED;fontColor=#095C86;" vertex="1" parent="Eg6wl4dy39NXFwd9Kh9v-1">
          <mxGeometry y="210" width="180" height="30" as="geometry" />
        </mxCell>
        <mxCell id="Eg6wl4dy39NXFwd9Kh9v-26" style="shape=partialRectangle;connectable=0;fillColor=none;top=0;left=0;bottom=0;right=0;editable=1;overflow=hidden;strokeColor=#AF45ED;fontColor=#095C86;" vertex="1" parent="Eg6wl4dy39NXFwd9Kh9v-25">
          <mxGeometry width="30" height="30" as="geometry">
            <mxRectangle width="30" height="30" as="alternateBounds" />
          </mxGeometry>
        </mxCell>
        <mxCell id="Eg6wl4dy39NXFwd9Kh9v-27" value="partSubCategory3" style="shape=partialRectangle;connectable=0;fillColor=none;top=0;left=0;bottom=0;right=0;align=left;spacingLeft=6;overflow=hidden;strokeColor=#AF45ED;fontColor=#095C86;" vertex="1" parent="Eg6wl4dy39NXFwd9Kh9v-25">
          <mxGeometry x="30" width="150" height="30" as="geometry">
            <mxRectangle width="150" height="30" as="alternateBounds" />
          </mxGeometry>
        </mxCell>
        <mxCell id="Eg6wl4dy39NXFwd9Kh9v-28" style="shape=tableRow;horizontal=0;startSize=0;swimlaneHead=0;swimlaneBody=0;fillColor=none;collapsible=0;dropTarget=0;points=[[0,0.5],[1,0.5]];portConstraint=eastwest;top=0;left=0;right=0;bottom=0;strokeColor=#AF45ED;fontColor=#095C86;" vertex="1" parent="Eg6wl4dy39NXFwd9Kh9v-1">
          <mxGeometry y="240" width="180" height="30" as="geometry" />
        </mxCell>
        <mxCell id="Eg6wl4dy39NXFwd9Kh9v-29" style="shape=partialRectangle;connectable=0;fillColor=none;top=0;left=0;bottom=0;right=0;editable=1;overflow=hidden;strokeColor=#AF45ED;fontColor=#095C86;" vertex="1" parent="Eg6wl4dy39NXFwd9Kh9v-28">
          <mxGeometry width="30" height="30" as="geometry">
            <mxRectangle width="30" height="30" as="alternateBounds" />
          </mxGeometry>
        </mxCell>
        <mxCell id="Eg6wl4dy39NXFwd9Kh9v-30" value="original" style="shape=partialRectangle;connectable=0;fillColor=none;top=0;left=0;bottom=0;right=0;align=left;spacingLeft=6;overflow=hidden;strokeColor=#AF45ED;fontColor=#095C86;" vertex="1" parent="Eg6wl4dy39NXFwd9Kh9v-28">
          <mxGeometry x="30" width="150" height="30" as="geometry">
            <mxRectangle width="150" height="30" as="alternateBounds" />
          </mxGeometry>
        </mxCell>
        <mxCell id="Eg6wl4dy39NXFwd9Kh9v-125" value="" style="edgeStyle=orthogonalEdgeStyle;curved=0;rounded=1;sketch=0;orthogonalLoop=1;jettySize=auto;html=1;fontColor=#095C86;strokeColor=#60E696;fillColor=#F694C1;" edge="1" parent="1" source="Eg6wl4dy39NXFwd9Kh9v-67" target="Eg6wl4dy39NXFwd9Kh9v-100">
          <mxGeometry relative="1" as="geometry" />
        </mxCell>
        <mxCell id="Eg6wl4dy39NXFwd9Kh9v-126" value="filterOneWord&lt;br&gt;filterStopWord" style="edgeLabel;html=1;align=center;verticalAlign=middle;resizable=0;points=[];fontColor=#095C86;" vertex="1" connectable="0" parent="Eg6wl4dy39NXFwd9Kh9v-125">
          <mxGeometry x="0.0364" y="-3" relative="1" as="geometry">
            <mxPoint as="offset" />
          </mxGeometry>
        </mxCell>
        <mxCell id="Eg6wl4dy39NXFwd9Kh9v-67" value="words" style="shape=table;startSize=30;container=1;collapsible=1;childLayout=tableLayout;fixedRows=1;rowLines=0;fontStyle=1;align=center;resizeLast=1;fillColor=#F694C1;strokeColor=#AF45ED;fontColor=#095C86;" vertex="1" parent="1">
          <mxGeometry x="640" y="430" width="180" height="280" as="geometry" />
        </mxCell>
        <mxCell id="Eg6wl4dy39NXFwd9Kh9v-68" value="" style="shape=tableRow;horizontal=0;startSize=0;swimlaneHead=0;swimlaneBody=0;fillColor=none;collapsible=0;dropTarget=0;points=[[0,0.5],[1,0.5]];portConstraint=eastwest;top=0;left=0;right=0;bottom=1;strokeColor=#AF45ED;fontColor=#095C86;" vertex="1" parent="Eg6wl4dy39NXFwd9Kh9v-67">
          <mxGeometry y="30" width="180" height="30" as="geometry" />
        </mxCell>
        <mxCell id="Eg6wl4dy39NXFwd9Kh9v-69" value="PK" style="shape=partialRectangle;connectable=0;fillColor=none;top=0;left=0;bottom=0;right=0;fontStyle=1;overflow=hidden;strokeColor=#AF45ED;fontColor=#095C86;" vertex="1" parent="Eg6wl4dy39NXFwd9Kh9v-68">
          <mxGeometry width="30" height="30" as="geometry">
            <mxRectangle width="30" height="30" as="alternateBounds" />
          </mxGeometry>
        </mxCell>
        <mxCell id="Eg6wl4dy39NXFwd9Kh9v-70" value="tweetID" style="shape=partialRectangle;connectable=0;fillColor=none;top=0;left=0;bottom=0;right=0;align=left;spacingLeft=6;fontStyle=5;overflow=hidden;strokeColor=#AF45ED;fontColor=#095C86;" vertex="1" parent="Eg6wl4dy39NXFwd9Kh9v-68">
          <mxGeometry x="30" width="150" height="30" as="geometry">
            <mxRectangle width="150" height="30" as="alternateBounds" />
          </mxGeometry>
        </mxCell>
        <mxCell id="Eg6wl4dy39NXFwd9Kh9v-71" style="shape=tableRow;horizontal=0;startSize=0;swimlaneHead=0;swimlaneBody=0;fillColor=none;collapsible=0;dropTarget=0;points=[[0,0.5],[1,0.5]];portConstraint=eastwest;top=0;left=0;right=0;bottom=1;strokeColor=#AF45ED;fontColor=#095C86;" vertex="1" parent="Eg6wl4dy39NXFwd9Kh9v-67">
          <mxGeometry y="60" width="180" height="30" as="geometry" />
        </mxCell>
        <mxCell id="Eg6wl4dy39NXFwd9Kh9v-72" value="PK" style="shape=partialRectangle;connectable=0;fillColor=none;top=0;left=0;bottom=0;right=0;fontStyle=1;overflow=hidden;strokeColor=#AF45ED;fontColor=#095C86;" vertex="1" parent="Eg6wl4dy39NXFwd9Kh9v-71">
          <mxGeometry width="30" height="30" as="geometry">
            <mxRectangle width="30" height="30" as="alternateBounds" />
          </mxGeometry>
        </mxCell>
        <mxCell id="Eg6wl4dy39NXFwd9Kh9v-73" value="wordNum" style="shape=partialRectangle;connectable=0;fillColor=none;top=0;left=0;bottom=0;right=0;align=left;spacingLeft=6;fontStyle=5;overflow=hidden;strokeColor=#AF45ED;fontColor=#095C86;" vertex="1" parent="Eg6wl4dy39NXFwd9Kh9v-71">
          <mxGeometry x="30" width="150" height="30" as="geometry">
            <mxRectangle width="150" height="30" as="alternateBounds" />
          </mxGeometry>
        </mxCell>
        <mxCell id="Eg6wl4dy39NXFwd9Kh9v-74" style="shape=tableRow;horizontal=0;startSize=0;swimlaneHead=0;swimlaneBody=0;fillColor=none;collapsible=0;dropTarget=0;points=[[0,0.5],[1,0.5]];portConstraint=eastwest;top=0;left=0;right=0;bottom=0;strokeColor=#AF45ED;fontColor=#095C86;" vertex="1" parent="Eg6wl4dy39NXFwd9Kh9v-67">
          <mxGeometry y="90" width="180" height="30" as="geometry" />
        </mxCell>
        <mxCell id="Eg6wl4dy39NXFwd9Kh9v-75" style="shape=partialRectangle;connectable=0;fillColor=none;top=0;left=0;bottom=0;right=0;editable=1;overflow=hidden;strokeColor=#AF45ED;fontColor=#095C86;" vertex="1" parent="Eg6wl4dy39NXFwd9Kh9v-74">
          <mxGeometry width="30" height="30" as="geometry">
            <mxRectangle width="30" height="30" as="alternateBounds" />
          </mxGeometry>
        </mxCell>
        <mxCell id="Eg6wl4dy39NXFwd9Kh9v-76" value="word" style="shape=partialRectangle;connectable=0;fillColor=none;top=0;left=0;bottom=0;right=0;align=left;spacingLeft=6;overflow=hidden;strokeColor=#AF45ED;fontColor=#095C86;" vertex="1" parent="Eg6wl4dy39NXFwd9Kh9v-74">
          <mxGeometry x="30" width="150" height="30" as="geometry">
            <mxRectangle width="150" height="30" as="alternateBounds" />
          </mxGeometry>
        </mxCell>
        <mxCell id="Eg6wl4dy39NXFwd9Kh9v-77" style="shape=tableRow;horizontal=0;startSize=0;swimlaneHead=0;swimlaneBody=0;fillColor=none;collapsible=0;dropTarget=0;points=[[0,0.5],[1,0.5]];portConstraint=eastwest;top=0;left=0;right=0;bottom=0;strokeColor=#AF45ED;fontColor=#095C86;" vertex="1" parent="Eg6wl4dy39NXFwd9Kh9v-67">
          <mxGeometry y="120" width="180" height="30" as="geometry" />
        </mxCell>
        <mxCell id="Eg6wl4dy39NXFwd9Kh9v-78" style="shape=partialRectangle;connectable=0;fillColor=none;top=0;left=0;bottom=0;right=0;editable=1;overflow=hidden;strokeColor=#AF45ED;fontColor=#095C86;" vertex="1" parent="Eg6wl4dy39NXFwd9Kh9v-77">
          <mxGeometry width="30" height="30" as="geometry">
            <mxRectangle width="30" height="30" as="alternateBounds" />
          </mxGeometry>
        </mxCell>
        <mxCell id="Eg6wl4dy39NXFwd9Kh9v-79" value="part" style="shape=partialRectangle;connectable=0;fillColor=none;top=0;left=0;bottom=0;right=0;align=left;spacingLeft=6;overflow=hidden;strokeColor=#AF45ED;fontColor=#095C86;" vertex="1" parent="Eg6wl4dy39NXFwd9Kh9v-77">
          <mxGeometry x="30" width="150" height="30" as="geometry">
            <mxRectangle width="150" height="30" as="alternateBounds" />
          </mxGeometry>
        </mxCell>
        <mxCell id="Eg6wl4dy39NXFwd9Kh9v-80" style="shape=tableRow;horizontal=0;startSize=0;swimlaneHead=0;swimlaneBody=0;fillColor=none;collapsible=0;dropTarget=0;points=[[0,0.5],[1,0.5]];portConstraint=eastwest;top=0;left=0;right=0;bottom=0;strokeColor=#AF45ED;fontColor=#095C86;" vertex="1" parent="Eg6wl4dy39NXFwd9Kh9v-67">
          <mxGeometry y="150" width="180" height="30" as="geometry" />
        </mxCell>
        <mxCell id="Eg6wl4dy39NXFwd9Kh9v-81" style="shape=partialRectangle;connectable=0;fillColor=none;top=0;left=0;bottom=0;right=0;editable=1;overflow=hidden;strokeColor=#AF45ED;fontColor=#095C86;" vertex="1" parent="Eg6wl4dy39NXFwd9Kh9v-80">
          <mxGeometry width="30" height="30" as="geometry">
            <mxRectangle width="30" height="30" as="alternateBounds" />
          </mxGeometry>
        </mxCell>
        <mxCell id="Eg6wl4dy39NXFwd9Kh9v-82" value="partSubCategory1" style="shape=partialRectangle;connectable=0;fillColor=none;top=0;left=0;bottom=0;right=0;align=left;spacingLeft=6;overflow=hidden;strokeColor=#AF45ED;fontColor=#095C86;" vertex="1" parent="Eg6wl4dy39NXFwd9Kh9v-80">
          <mxGeometry x="30" width="150" height="30" as="geometry">
            <mxRectangle width="150" height="30" as="alternateBounds" />
          </mxGeometry>
        </mxCell>
        <mxCell id="Eg6wl4dy39NXFwd9Kh9v-83" style="shape=tableRow;horizontal=0;startSize=0;swimlaneHead=0;swimlaneBody=0;fillColor=none;collapsible=0;dropTarget=0;points=[[0,0.5],[1,0.5]];portConstraint=eastwest;top=0;left=0;right=0;bottom=0;strokeColor=#AF45ED;fontColor=#095C86;" vertex="1" parent="Eg6wl4dy39NXFwd9Kh9v-67">
          <mxGeometry y="180" width="180" height="30" as="geometry" />
        </mxCell>
        <mxCell id="Eg6wl4dy39NXFwd9Kh9v-84" style="shape=partialRectangle;connectable=0;fillColor=none;top=0;left=0;bottom=0;right=0;editable=1;overflow=hidden;strokeColor=#AF45ED;fontColor=#095C86;" vertex="1" parent="Eg6wl4dy39NXFwd9Kh9v-83">
          <mxGeometry width="30" height="30" as="geometry">
            <mxRectangle width="30" height="30" as="alternateBounds" />
          </mxGeometry>
        </mxCell>
        <mxCell id="Eg6wl4dy39NXFwd9Kh9v-85" value="partSubCategory2" style="shape=partialRectangle;connectable=0;fillColor=none;top=0;left=0;bottom=0;right=0;align=left;spacingLeft=6;overflow=hidden;strokeColor=#AF45ED;fontColor=#095C86;" vertex="1" parent="Eg6wl4dy39NXFwd9Kh9v-83">
          <mxGeometry x="30" width="150" height="30" as="geometry">
            <mxRectangle width="150" height="30" as="alternateBounds" />
          </mxGeometry>
        </mxCell>
        <mxCell id="Eg6wl4dy39NXFwd9Kh9v-86" style="shape=tableRow;horizontal=0;startSize=0;swimlaneHead=0;swimlaneBody=0;fillColor=none;collapsible=0;dropTarget=0;points=[[0,0.5],[1,0.5]];portConstraint=eastwest;top=0;left=0;right=0;bottom=0;strokeColor=#AF45ED;fontColor=#095C86;" vertex="1" parent="Eg6wl4dy39NXFwd9Kh9v-67">
          <mxGeometry y="210" width="180" height="30" as="geometry" />
        </mxCell>
        <mxCell id="Eg6wl4dy39NXFwd9Kh9v-87" style="shape=partialRectangle;connectable=0;fillColor=none;top=0;left=0;bottom=0;right=0;editable=1;overflow=hidden;strokeColor=#AF45ED;fontColor=#095C86;" vertex="1" parent="Eg6wl4dy39NXFwd9Kh9v-86">
          <mxGeometry width="30" height="30" as="geometry">
            <mxRectangle width="30" height="30" as="alternateBounds" />
          </mxGeometry>
        </mxCell>
        <mxCell id="Eg6wl4dy39NXFwd9Kh9v-88" value="partSubCategory3" style="shape=partialRectangle;connectable=0;fillColor=none;top=0;left=0;bottom=0;right=0;align=left;spacingLeft=6;overflow=hidden;strokeColor=#AF45ED;fontColor=#095C86;" vertex="1" parent="Eg6wl4dy39NXFwd9Kh9v-86">
          <mxGeometry x="30" width="150" height="30" as="geometry">
            <mxRectangle width="150" height="30" as="alternateBounds" />
          </mxGeometry>
        </mxCell>
        <mxCell id="Eg6wl4dy39NXFwd9Kh9v-89" style="shape=tableRow;horizontal=0;startSize=0;swimlaneHead=0;swimlaneBody=0;fillColor=none;collapsible=0;dropTarget=0;points=[[0,0.5],[1,0.5]];portConstraint=eastwest;top=0;left=0;right=0;bottom=0;strokeColor=#AF45ED;fontColor=#095C86;" vertex="1" parent="Eg6wl4dy39NXFwd9Kh9v-67">
          <mxGeometry y="240" width="180" height="30" as="geometry" />
        </mxCell>
        <mxCell id="Eg6wl4dy39NXFwd9Kh9v-90" style="shape=partialRectangle;connectable=0;fillColor=none;top=0;left=0;bottom=0;right=0;editable=1;overflow=hidden;strokeColor=#AF45ED;fontColor=#095C86;" vertex="1" parent="Eg6wl4dy39NXFwd9Kh9v-89">
          <mxGeometry width="30" height="30" as="geometry">
            <mxRectangle width="30" height="30" as="alternateBounds" />
          </mxGeometry>
        </mxCell>
        <mxCell id="Eg6wl4dy39NXFwd9Kh9v-91" value="original" style="shape=partialRectangle;connectable=0;fillColor=none;top=0;left=0;bottom=0;right=0;align=left;spacingLeft=6;overflow=hidden;strokeColor=#AF45ED;fontColor=#095C86;" vertex="1" parent="Eg6wl4dy39NXFwd9Kh9v-89">
          <mxGeometry x="30" width="150" height="30" as="geometry">
            <mxRectangle width="150" height="30" as="alternateBounds" />
          </mxGeometry>
        </mxCell>
        <mxCell id="Eg6wl4dy39NXFwd9Kh9v-161" value="filterClassWord" style="edgeStyle=orthogonalEdgeStyle;curved=0;rounded=1;sketch=0;orthogonalLoop=1;jettySize=auto;html=1;fontColor=#095C86;strokeColor=#60E696;fillColor=#F694C1;" edge="1" parent="1" source="Eg6wl4dy39NXFwd9Kh9v-100" target="Eg6wl4dy39NXFwd9Kh9v-136">
          <mxGeometry relative="1" as="geometry" />
        </mxCell>
        <mxCell id="Eg6wl4dy39NXFwd9Kh9v-100" value="words" style="shape=table;startSize=30;container=1;collapsible=1;childLayout=tableLayout;fixedRows=1;rowLines=0;fontStyle=1;align=center;resizeLast=1;fillColor=#F694C1;strokeColor=#AF45ED;fontColor=#095C86;" vertex="1" parent="1">
          <mxGeometry x="930" y="430" width="180" height="280" as="geometry" />
        </mxCell>
        <mxCell id="Eg6wl4dy39NXFwd9Kh9v-101" value="" style="shape=tableRow;horizontal=0;startSize=0;swimlaneHead=0;swimlaneBody=0;fillColor=none;collapsible=0;dropTarget=0;points=[[0,0.5],[1,0.5]];portConstraint=eastwest;top=0;left=0;right=0;bottom=1;strokeColor=#AF45ED;fontColor=#095C86;" vertex="1" parent="Eg6wl4dy39NXFwd9Kh9v-100">
          <mxGeometry y="30" width="180" height="30" as="geometry" />
        </mxCell>
        <mxCell id="Eg6wl4dy39NXFwd9Kh9v-102" value="PK" style="shape=partialRectangle;connectable=0;fillColor=none;top=0;left=0;bottom=0;right=0;fontStyle=1;overflow=hidden;strokeColor=#AF45ED;fontColor=#095C86;" vertex="1" parent="Eg6wl4dy39NXFwd9Kh9v-101">
          <mxGeometry width="30" height="30" as="geometry">
            <mxRectangle width="30" height="30" as="alternateBounds" />
          </mxGeometry>
        </mxCell>
        <mxCell id="Eg6wl4dy39NXFwd9Kh9v-103" value="tweetID" style="shape=partialRectangle;connectable=0;fillColor=none;top=0;left=0;bottom=0;right=0;align=left;spacingLeft=6;fontStyle=5;overflow=hidden;strokeColor=#AF45ED;fontColor=#095C86;" vertex="1" parent="Eg6wl4dy39NXFwd9Kh9v-101">
          <mxGeometry x="30" width="150" height="30" as="geometry">
            <mxRectangle width="150" height="30" as="alternateBounds" />
          </mxGeometry>
        </mxCell>
        <mxCell id="Eg6wl4dy39NXFwd9Kh9v-104" style="shape=tableRow;horizontal=0;startSize=0;swimlaneHead=0;swimlaneBody=0;fillColor=none;collapsible=0;dropTarget=0;points=[[0,0.5],[1,0.5]];portConstraint=eastwest;top=0;left=0;right=0;bottom=1;strokeColor=#AF45ED;fontColor=#095C86;" vertex="1" parent="Eg6wl4dy39NXFwd9Kh9v-100">
          <mxGeometry y="60" width="180" height="30" as="geometry" />
        </mxCell>
        <mxCell id="Eg6wl4dy39NXFwd9Kh9v-105" value="PK" style="shape=partialRectangle;connectable=0;fillColor=none;top=0;left=0;bottom=0;right=0;fontStyle=1;overflow=hidden;strokeColor=#AF45ED;fontColor=#095C86;" vertex="1" parent="Eg6wl4dy39NXFwd9Kh9v-104">
          <mxGeometry width="30" height="30" as="geometry">
            <mxRectangle width="30" height="30" as="alternateBounds" />
          </mxGeometry>
        </mxCell>
        <mxCell id="Eg6wl4dy39NXFwd9Kh9v-106" value="wordNum" style="shape=partialRectangle;connectable=0;fillColor=none;top=0;left=0;bottom=0;right=0;align=left;spacingLeft=6;fontStyle=5;overflow=hidden;strokeColor=#AF45ED;fontColor=#095C86;" vertex="1" parent="Eg6wl4dy39NXFwd9Kh9v-104">
          <mxGeometry x="30" width="150" height="30" as="geometry">
            <mxRectangle width="150" height="30" as="alternateBounds" />
          </mxGeometry>
        </mxCell>
        <mxCell id="Eg6wl4dy39NXFwd9Kh9v-107" style="shape=tableRow;horizontal=0;startSize=0;swimlaneHead=0;swimlaneBody=0;fillColor=none;collapsible=0;dropTarget=0;points=[[0,0.5],[1,0.5]];portConstraint=eastwest;top=0;left=0;right=0;bottom=0;strokeColor=#AF45ED;fontColor=#095C86;" vertex="1" parent="Eg6wl4dy39NXFwd9Kh9v-100">
          <mxGeometry y="90" width="180" height="30" as="geometry" />
        </mxCell>
        <mxCell id="Eg6wl4dy39NXFwd9Kh9v-108" style="shape=partialRectangle;connectable=0;fillColor=none;top=0;left=0;bottom=0;right=0;editable=1;overflow=hidden;strokeColor=#AF45ED;fontColor=#095C86;" vertex="1" parent="Eg6wl4dy39NXFwd9Kh9v-107">
          <mxGeometry width="30" height="30" as="geometry">
            <mxRectangle width="30" height="30" as="alternateBounds" />
          </mxGeometry>
        </mxCell>
        <mxCell id="Eg6wl4dy39NXFwd9Kh9v-109" value="word" style="shape=partialRectangle;connectable=0;fillColor=none;top=0;left=0;bottom=0;right=0;align=left;spacingLeft=6;overflow=hidden;strokeColor=#AF45ED;fontColor=#095C86;" vertex="1" parent="Eg6wl4dy39NXFwd9Kh9v-107">
          <mxGeometry x="30" width="150" height="30" as="geometry">
            <mxRectangle width="150" height="30" as="alternateBounds" />
          </mxGeometry>
        </mxCell>
        <mxCell id="Eg6wl4dy39NXFwd9Kh9v-110" style="shape=tableRow;horizontal=0;startSize=0;swimlaneHead=0;swimlaneBody=0;fillColor=none;collapsible=0;dropTarget=0;points=[[0,0.5],[1,0.5]];portConstraint=eastwest;top=0;left=0;right=0;bottom=0;strokeColor=#AF45ED;fontColor=#095C86;" vertex="1" parent="Eg6wl4dy39NXFwd9Kh9v-100">
          <mxGeometry y="120" width="180" height="30" as="geometry" />
        </mxCell>
        <mxCell id="Eg6wl4dy39NXFwd9Kh9v-111" style="shape=partialRectangle;connectable=0;fillColor=none;top=0;left=0;bottom=0;right=0;editable=1;overflow=hidden;strokeColor=#AF45ED;fontColor=#095C86;" vertex="1" parent="Eg6wl4dy39NXFwd9Kh9v-110">
          <mxGeometry width="30" height="30" as="geometry">
            <mxRectangle width="30" height="30" as="alternateBounds" />
          </mxGeometry>
        </mxCell>
        <mxCell id="Eg6wl4dy39NXFwd9Kh9v-112" value="part" style="shape=partialRectangle;connectable=0;fillColor=none;top=0;left=0;bottom=0;right=0;align=left;spacingLeft=6;overflow=hidden;strokeColor=#AF45ED;fontColor=#095C86;" vertex="1" parent="Eg6wl4dy39NXFwd9Kh9v-110">
          <mxGeometry x="30" width="150" height="30" as="geometry">
            <mxRectangle width="150" height="30" as="alternateBounds" />
          </mxGeometry>
        </mxCell>
        <mxCell id="Eg6wl4dy39NXFwd9Kh9v-113" style="shape=tableRow;horizontal=0;startSize=0;swimlaneHead=0;swimlaneBody=0;fillColor=none;collapsible=0;dropTarget=0;points=[[0,0.5],[1,0.5]];portConstraint=eastwest;top=0;left=0;right=0;bottom=0;strokeColor=#AF45ED;fontColor=#095C86;" vertex="1" parent="Eg6wl4dy39NXFwd9Kh9v-100">
          <mxGeometry y="150" width="180" height="30" as="geometry" />
        </mxCell>
        <mxCell id="Eg6wl4dy39NXFwd9Kh9v-114" style="shape=partialRectangle;connectable=0;fillColor=none;top=0;left=0;bottom=0;right=0;editable=1;overflow=hidden;strokeColor=#AF45ED;fontColor=#095C86;" vertex="1" parent="Eg6wl4dy39NXFwd9Kh9v-113">
          <mxGeometry width="30" height="30" as="geometry">
            <mxRectangle width="30" height="30" as="alternateBounds" />
          </mxGeometry>
        </mxCell>
        <mxCell id="Eg6wl4dy39NXFwd9Kh9v-115" value="partSubCategory1" style="shape=partialRectangle;connectable=0;fillColor=none;top=0;left=0;bottom=0;right=0;align=left;spacingLeft=6;overflow=hidden;strokeColor=#AF45ED;fontColor=#095C86;" vertex="1" parent="Eg6wl4dy39NXFwd9Kh9v-113">
          <mxGeometry x="30" width="150" height="30" as="geometry">
            <mxRectangle width="150" height="30" as="alternateBounds" />
          </mxGeometry>
        </mxCell>
        <mxCell id="Eg6wl4dy39NXFwd9Kh9v-116" style="shape=tableRow;horizontal=0;startSize=0;swimlaneHead=0;swimlaneBody=0;fillColor=none;collapsible=0;dropTarget=0;points=[[0,0.5],[1,0.5]];portConstraint=eastwest;top=0;left=0;right=0;bottom=0;strokeColor=#AF45ED;fontColor=#095C86;" vertex="1" parent="Eg6wl4dy39NXFwd9Kh9v-100">
          <mxGeometry y="180" width="180" height="30" as="geometry" />
        </mxCell>
        <mxCell id="Eg6wl4dy39NXFwd9Kh9v-117" style="shape=partialRectangle;connectable=0;fillColor=none;top=0;left=0;bottom=0;right=0;editable=1;overflow=hidden;strokeColor=#AF45ED;fontColor=#095C86;" vertex="1" parent="Eg6wl4dy39NXFwd9Kh9v-116">
          <mxGeometry width="30" height="30" as="geometry">
            <mxRectangle width="30" height="30" as="alternateBounds" />
          </mxGeometry>
        </mxCell>
        <mxCell id="Eg6wl4dy39NXFwd9Kh9v-118" value="partSubCategory2" style="shape=partialRectangle;connectable=0;fillColor=none;top=0;left=0;bottom=0;right=0;align=left;spacingLeft=6;overflow=hidden;strokeColor=#AF45ED;fontColor=#095C86;" vertex="1" parent="Eg6wl4dy39NXFwd9Kh9v-116">
          <mxGeometry x="30" width="150" height="30" as="geometry">
            <mxRectangle width="150" height="30" as="alternateBounds" />
          </mxGeometry>
        </mxCell>
        <mxCell id="Eg6wl4dy39NXFwd9Kh9v-119" style="shape=tableRow;horizontal=0;startSize=0;swimlaneHead=0;swimlaneBody=0;fillColor=none;collapsible=0;dropTarget=0;points=[[0,0.5],[1,0.5]];portConstraint=eastwest;top=0;left=0;right=0;bottom=0;strokeColor=#AF45ED;fontColor=#095C86;" vertex="1" parent="Eg6wl4dy39NXFwd9Kh9v-100">
          <mxGeometry y="210" width="180" height="30" as="geometry" />
        </mxCell>
        <mxCell id="Eg6wl4dy39NXFwd9Kh9v-120" style="shape=partialRectangle;connectable=0;fillColor=none;top=0;left=0;bottom=0;right=0;editable=1;overflow=hidden;strokeColor=#AF45ED;fontColor=#095C86;" vertex="1" parent="Eg6wl4dy39NXFwd9Kh9v-119">
          <mxGeometry width="30" height="30" as="geometry">
            <mxRectangle width="30" height="30" as="alternateBounds" />
          </mxGeometry>
        </mxCell>
        <mxCell id="Eg6wl4dy39NXFwd9Kh9v-121" value="partSubCategory3" style="shape=partialRectangle;connectable=0;fillColor=none;top=0;left=0;bottom=0;right=0;align=left;spacingLeft=6;overflow=hidden;strokeColor=#AF45ED;fontColor=#095C86;" vertex="1" parent="Eg6wl4dy39NXFwd9Kh9v-119">
          <mxGeometry x="30" width="150" height="30" as="geometry">
            <mxRectangle width="150" height="30" as="alternateBounds" />
          </mxGeometry>
        </mxCell>
        <mxCell id="Eg6wl4dy39NXFwd9Kh9v-122" style="shape=tableRow;horizontal=0;startSize=0;swimlaneHead=0;swimlaneBody=0;fillColor=none;collapsible=0;dropTarget=0;points=[[0,0.5],[1,0.5]];portConstraint=eastwest;top=0;left=0;right=0;bottom=0;strokeColor=#AF45ED;fontColor=#095C86;" vertex="1" parent="Eg6wl4dy39NXFwd9Kh9v-100">
          <mxGeometry y="240" width="180" height="30" as="geometry" />
        </mxCell>
        <mxCell id="Eg6wl4dy39NXFwd9Kh9v-123" style="shape=partialRectangle;connectable=0;fillColor=none;top=0;left=0;bottom=0;right=0;editable=1;overflow=hidden;strokeColor=#AF45ED;fontColor=#095C86;" vertex="1" parent="Eg6wl4dy39NXFwd9Kh9v-122">
          <mxGeometry width="30" height="30" as="geometry">
            <mxRectangle width="30" height="30" as="alternateBounds" />
          </mxGeometry>
        </mxCell>
        <mxCell id="Eg6wl4dy39NXFwd9Kh9v-124" value="original" style="shape=partialRectangle;connectable=0;fillColor=none;top=0;left=0;bottom=0;right=0;align=left;spacingLeft=6;overflow=hidden;strokeColor=#AF45ED;fontColor=#095C86;" vertex="1" parent="Eg6wl4dy39NXFwd9Kh9v-122">
          <mxGeometry x="30" width="150" height="30" as="geometry">
            <mxRectangle width="150" height="30" as="alternateBounds" />
          </mxGeometry>
        </mxCell>
        <mxCell id="Eg6wl4dy39NXFwd9Kh9v-136" value="words" style="shape=table;startSize=30;container=1;collapsible=1;childLayout=tableLayout;fixedRows=1;rowLines=0;fontStyle=1;align=center;resizeLast=1;fillColor=#F694C1;strokeColor=#AF45ED;fontColor=#095C86;" vertex="1" parent="1">
          <mxGeometry x="1290" y="430" width="180" height="280" as="geometry" />
        </mxCell>
        <mxCell id="Eg6wl4dy39NXFwd9Kh9v-137" value="" style="shape=tableRow;horizontal=0;startSize=0;swimlaneHead=0;swimlaneBody=0;fillColor=none;collapsible=0;dropTarget=0;points=[[0,0.5],[1,0.5]];portConstraint=eastwest;top=0;left=0;right=0;bottom=1;strokeColor=#AF45ED;fontColor=#095C86;" vertex="1" parent="Eg6wl4dy39NXFwd9Kh9v-136">
          <mxGeometry y="30" width="180" height="30" as="geometry" />
        </mxCell>
        <mxCell id="Eg6wl4dy39NXFwd9Kh9v-138" value="PK" style="shape=partialRectangle;connectable=0;fillColor=none;top=0;left=0;bottom=0;right=0;fontStyle=1;overflow=hidden;strokeColor=#AF45ED;fontColor=#095C86;" vertex="1" parent="Eg6wl4dy39NXFwd9Kh9v-137">
          <mxGeometry width="30" height="30" as="geometry">
            <mxRectangle width="30" height="30" as="alternateBounds" />
          </mxGeometry>
        </mxCell>
        <mxCell id="Eg6wl4dy39NXFwd9Kh9v-139" value="tweetID" style="shape=partialRectangle;connectable=0;fillColor=none;top=0;left=0;bottom=0;right=0;align=left;spacingLeft=6;fontStyle=5;overflow=hidden;strokeColor=#AF45ED;fontColor=#095C86;" vertex="1" parent="Eg6wl4dy39NXFwd9Kh9v-137">
          <mxGeometry x="30" width="150" height="30" as="geometry">
            <mxRectangle width="150" height="30" as="alternateBounds" />
          </mxGeometry>
        </mxCell>
        <mxCell id="Eg6wl4dy39NXFwd9Kh9v-140" style="shape=tableRow;horizontal=0;startSize=0;swimlaneHead=0;swimlaneBody=0;fillColor=none;collapsible=0;dropTarget=0;points=[[0,0.5],[1,0.5]];portConstraint=eastwest;top=0;left=0;right=0;bottom=1;strokeColor=#AF45ED;fontColor=#095C86;" vertex="1" parent="Eg6wl4dy39NXFwd9Kh9v-136">
          <mxGeometry y="60" width="180" height="30" as="geometry" />
        </mxCell>
        <mxCell id="Eg6wl4dy39NXFwd9Kh9v-141" value="PK" style="shape=partialRectangle;connectable=0;fillColor=none;top=0;left=0;bottom=0;right=0;fontStyle=1;overflow=hidden;strokeColor=#AF45ED;fontColor=#095C86;" vertex="1" parent="Eg6wl4dy39NXFwd9Kh9v-140">
          <mxGeometry width="30" height="30" as="geometry">
            <mxRectangle width="30" height="30" as="alternateBounds" />
          </mxGeometry>
        </mxCell>
        <mxCell id="Eg6wl4dy39NXFwd9Kh9v-142" value="wordNum" style="shape=partialRectangle;connectable=0;fillColor=none;top=0;left=0;bottom=0;right=0;align=left;spacingLeft=6;fontStyle=5;overflow=hidden;strokeColor=#AF45ED;fontColor=#095C86;" vertex="1" parent="Eg6wl4dy39NXFwd9Kh9v-140">
          <mxGeometry x="30" width="150" height="30" as="geometry">
            <mxRectangle width="150" height="30" as="alternateBounds" />
          </mxGeometry>
        </mxCell>
        <mxCell id="Eg6wl4dy39NXFwd9Kh9v-143" style="shape=tableRow;horizontal=0;startSize=0;swimlaneHead=0;swimlaneBody=0;fillColor=none;collapsible=0;dropTarget=0;points=[[0,0.5],[1,0.5]];portConstraint=eastwest;top=0;left=0;right=0;bottom=0;strokeColor=#AF45ED;fontColor=#095C86;" vertex="1" parent="Eg6wl4dy39NXFwd9Kh9v-136">
          <mxGeometry y="90" width="180" height="30" as="geometry" />
        </mxCell>
        <mxCell id="Eg6wl4dy39NXFwd9Kh9v-144" style="shape=partialRectangle;connectable=0;fillColor=none;top=0;left=0;bottom=0;right=0;editable=1;overflow=hidden;strokeColor=#AF45ED;fontColor=#095C86;" vertex="1" parent="Eg6wl4dy39NXFwd9Kh9v-143">
          <mxGeometry width="30" height="30" as="geometry">
            <mxRectangle width="30" height="30" as="alternateBounds" />
          </mxGeometry>
        </mxCell>
        <mxCell id="Eg6wl4dy39NXFwd9Kh9v-145" value="word" style="shape=partialRectangle;connectable=0;fillColor=none;top=0;left=0;bottom=0;right=0;align=left;spacingLeft=6;overflow=hidden;strokeColor=#AF45ED;fontColor=#095C86;" vertex="1" parent="Eg6wl4dy39NXFwd9Kh9v-143">
          <mxGeometry x="30" width="150" height="30" as="geometry">
            <mxRectangle width="150" height="30" as="alternateBounds" />
          </mxGeometry>
        </mxCell>
        <mxCell id="Eg6wl4dy39NXFwd9Kh9v-146" style="shape=tableRow;horizontal=0;startSize=0;swimlaneHead=0;swimlaneBody=0;fillColor=none;collapsible=0;dropTarget=0;points=[[0,0.5],[1,0.5]];portConstraint=eastwest;top=0;left=0;right=0;bottom=0;strokeColor=#AF45ED;fontColor=#095C86;" vertex="1" parent="Eg6wl4dy39NXFwd9Kh9v-136">
          <mxGeometry y="120" width="180" height="30" as="geometry" />
        </mxCell>
        <mxCell id="Eg6wl4dy39NXFwd9Kh9v-147" style="shape=partialRectangle;connectable=0;fillColor=none;top=0;left=0;bottom=0;right=0;editable=1;overflow=hidden;strokeColor=#AF45ED;fontColor=#095C86;" vertex="1" parent="Eg6wl4dy39NXFwd9Kh9v-146">
          <mxGeometry width="30" height="30" as="geometry">
            <mxRectangle width="30" height="30" as="alternateBounds" />
          </mxGeometry>
        </mxCell>
        <mxCell id="Eg6wl4dy39NXFwd9Kh9v-148" value="part" style="shape=partialRectangle;connectable=0;fillColor=none;top=0;left=0;bottom=0;right=0;align=left;spacingLeft=6;overflow=hidden;strokeColor=#AF45ED;fontColor=#095C86;" vertex="1" parent="Eg6wl4dy39NXFwd9Kh9v-146">
          <mxGeometry x="30" width="150" height="30" as="geometry">
            <mxRectangle width="150" height="30" as="alternateBounds" />
          </mxGeometry>
        </mxCell>
        <mxCell id="Eg6wl4dy39NXFwd9Kh9v-149" style="shape=tableRow;horizontal=0;startSize=0;swimlaneHead=0;swimlaneBody=0;fillColor=none;collapsible=0;dropTarget=0;points=[[0,0.5],[1,0.5]];portConstraint=eastwest;top=0;left=0;right=0;bottom=0;strokeColor=#AF45ED;fontColor=#095C86;" vertex="1" parent="Eg6wl4dy39NXFwd9Kh9v-136">
          <mxGeometry y="150" width="180" height="30" as="geometry" />
        </mxCell>
        <mxCell id="Eg6wl4dy39NXFwd9Kh9v-150" style="shape=partialRectangle;connectable=0;fillColor=none;top=0;left=0;bottom=0;right=0;editable=1;overflow=hidden;strokeColor=#AF45ED;fontColor=#095C86;" vertex="1" parent="Eg6wl4dy39NXFwd9Kh9v-149">
          <mxGeometry width="30" height="30" as="geometry">
            <mxRectangle width="30" height="30" as="alternateBounds" />
          </mxGeometry>
        </mxCell>
        <mxCell id="Eg6wl4dy39NXFwd9Kh9v-151" value="partSubCategory1" style="shape=partialRectangle;connectable=0;fillColor=none;top=0;left=0;bottom=0;right=0;align=left;spacingLeft=6;overflow=hidden;strokeColor=#AF45ED;fontColor=#095C86;" vertex="1" parent="Eg6wl4dy39NXFwd9Kh9v-149">
          <mxGeometry x="30" width="150" height="30" as="geometry">
            <mxRectangle width="150" height="30" as="alternateBounds" />
          </mxGeometry>
        </mxCell>
        <mxCell id="Eg6wl4dy39NXFwd9Kh9v-152" style="shape=tableRow;horizontal=0;startSize=0;swimlaneHead=0;swimlaneBody=0;fillColor=none;collapsible=0;dropTarget=0;points=[[0,0.5],[1,0.5]];portConstraint=eastwest;top=0;left=0;right=0;bottom=0;strokeColor=#AF45ED;fontColor=#095C86;" vertex="1" parent="Eg6wl4dy39NXFwd9Kh9v-136">
          <mxGeometry y="180" width="180" height="30" as="geometry" />
        </mxCell>
        <mxCell id="Eg6wl4dy39NXFwd9Kh9v-153" style="shape=partialRectangle;connectable=0;fillColor=none;top=0;left=0;bottom=0;right=0;editable=1;overflow=hidden;strokeColor=#AF45ED;fontColor=#095C86;" vertex="1" parent="Eg6wl4dy39NXFwd9Kh9v-152">
          <mxGeometry width="30" height="30" as="geometry">
            <mxRectangle width="30" height="30" as="alternateBounds" />
          </mxGeometry>
        </mxCell>
        <mxCell id="Eg6wl4dy39NXFwd9Kh9v-154" value="partSubCategory2" style="shape=partialRectangle;connectable=0;fillColor=none;top=0;left=0;bottom=0;right=0;align=left;spacingLeft=6;overflow=hidden;strokeColor=#AF45ED;fontColor=#095C86;" vertex="1" parent="Eg6wl4dy39NXFwd9Kh9v-152">
          <mxGeometry x="30" width="150" height="30" as="geometry">
            <mxRectangle width="150" height="30" as="alternateBounds" />
          </mxGeometry>
        </mxCell>
        <mxCell id="Eg6wl4dy39NXFwd9Kh9v-155" style="shape=tableRow;horizontal=0;startSize=0;swimlaneHead=0;swimlaneBody=0;fillColor=none;collapsible=0;dropTarget=0;points=[[0,0.5],[1,0.5]];portConstraint=eastwest;top=0;left=0;right=0;bottom=0;strokeColor=#AF45ED;fontColor=#095C86;" vertex="1" parent="Eg6wl4dy39NXFwd9Kh9v-136">
          <mxGeometry y="210" width="180" height="30" as="geometry" />
        </mxCell>
        <mxCell id="Eg6wl4dy39NXFwd9Kh9v-156" style="shape=partialRectangle;connectable=0;fillColor=none;top=0;left=0;bottom=0;right=0;editable=1;overflow=hidden;strokeColor=#AF45ED;fontColor=#095C86;" vertex="1" parent="Eg6wl4dy39NXFwd9Kh9v-155">
          <mxGeometry width="30" height="30" as="geometry">
            <mxRectangle width="30" height="30" as="alternateBounds" />
          </mxGeometry>
        </mxCell>
        <mxCell id="Eg6wl4dy39NXFwd9Kh9v-157" value="partSubCategory3" style="shape=partialRectangle;connectable=0;fillColor=none;top=0;left=0;bottom=0;right=0;align=left;spacingLeft=6;overflow=hidden;strokeColor=#AF45ED;fontColor=#095C86;" vertex="1" parent="Eg6wl4dy39NXFwd9Kh9v-155">
          <mxGeometry x="30" width="150" height="30" as="geometry">
            <mxRectangle width="150" height="30" as="alternateBounds" />
          </mxGeometry>
        </mxCell>
        <mxCell id="Eg6wl4dy39NXFwd9Kh9v-158" style="shape=tableRow;horizontal=0;startSize=0;swimlaneHead=0;swimlaneBody=0;fillColor=none;collapsible=0;dropTarget=0;points=[[0,0.5],[1,0.5]];portConstraint=eastwest;top=0;left=0;right=0;bottom=0;strokeColor=#AF45ED;fontColor=#095C86;" vertex="1" parent="Eg6wl4dy39NXFwd9Kh9v-136">
          <mxGeometry y="240" width="180" height="30" as="geometry" />
        </mxCell>
        <mxCell id="Eg6wl4dy39NXFwd9Kh9v-159" style="shape=partialRectangle;connectable=0;fillColor=none;top=0;left=0;bottom=0;right=0;editable=1;overflow=hidden;strokeColor=#AF45ED;fontColor=#095C86;" vertex="1" parent="Eg6wl4dy39NXFwd9Kh9v-158">
          <mxGeometry width="30" height="30" as="geometry">
            <mxRectangle width="30" height="30" as="alternateBounds" />
          </mxGeometry>
        </mxCell>
        <mxCell id="Eg6wl4dy39NXFwd9Kh9v-160" value="original" style="shape=partialRectangle;connectable=0;fillColor=none;top=0;left=0;bottom=0;right=0;align=left;spacingLeft=6;overflow=hidden;strokeColor=#AF45ED;fontColor=#095C86;" vertex="1" parent="Eg6wl4dy39NXFwd9Kh9v-158">
          <mxGeometry x="30" width="150" height="30" as="geometry">
            <mxRectangle width="150" height="30" as="alternateBounds" />
          </mxGeometry>
        </mxCell>
      </root>
    </mxGraphModel>
  </diagram>
</mxfile>
